<?xml version="1.0" encoding="UTF-8"?>
<svg width="616px" height="220px" viewBox="0 0 616 220" version="1.1" xmlns="http://www.w3.org/2000/svg" xmlns:xlink="http://www.w3.org/1999/xlink">
    <!-- Generator: Sketch 47 (45396) - http://www.bohemiancoding.com/sketch -->
    <title>logo_mobile</title>
    <desc>Created with Sketch.</desc>
    <defs></defs>
    <g id="Page-1" stroke="none" stroke-width="1" fill="none" fill-rule="evenodd">
        <g id="logo_mobile" fill-rule="nonzero" fill="#FFFFFF">
            <path d="M174.24,186.58 C174.207088,189.121426 172.131615,191.161192 169.59,191.15 L130.8,191.15 C123.23,191.15 116.67,195.41 112.98,202.15 C111.382264,204.95875 108.40138,206.695373 105.17,206.7 L101.8,206.7 C98.3622585,206.634619 95.2256644,204.724391 93.59,201.7 C90.1867016,195.227781 83.4724515,191.1792 76.16,191.19 L34.16,191.19 C31.6183851,191.201192 29.5429124,189.161426 29.51,186.62 L29.51,130.12 C29.4586435,128.911607 29.8926513,127.732855 30.7153578,126.846285 C31.5380643,125.959716 32.6811436,125.438958 33.89,125.4 L76.15,125.4 C83.72,125.4 90.29,129.66 93.96,136.4 C95.5638407,139.211111 98.5535468,140.944606 101.79,140.94 L105.16,140.94 C108.597742,140.874619 111.734336,138.964391 113.37,135.94 C116.774997,129.469383 123.488173,125.421449 130.8,125.43 L169.8,125.43 C171.005776,125.435229 172.15948,125.922018 173.004556,126.782117 C173.849631,127.642217 174.316017,128.804319 174.3,130.01 L174.24,186.58 Z M179.12,17.58 C178.703116,17.5149946 178.281919,17.4815662 177.86,17.48 C175.364046,17.4819242 173.009081,18.6372597 171.48,20.61 L149.8,47.55 C144.697692,52.5590054 137.096568,54.0355343 130.490064,51.3009818 C123.883559,48.5664293 119.54958,42.1497439 119.48,35 C119.5801,16.674358 105.493061,1.39083735 87.22,2.32309086e-14 C86.3873595,-0.00279433947 85.5885989,0.329483499 85.0036039,0.922002571 C84.4186089,1.51452164 84.0965655,2.31746319 84.11,3.15 L84.11,25.78 L84.11,34.93 C84.1446334,39.6079523 82.3112418,44.1063534 79.0165069,47.4273711 C75.7217719,50.7483889 71.2380798,52.6174641 66.56,52.62 C61.8544864,52.6241501 57.3333705,50.7905864 53.96,47.51 L32.3,20.58 C30.7677854,18.60569 28.4091161,17.4503481 25.91,17.45 C25.4880909,17.451793 25.0669101,17.48522 24.65,17.55 C10.45,19.67 0.49,31.67 0.49,46.18 L0.49,191 C0.49,207.016258 13.4737423,220 29.49,220 L174.31,220 C190.326258,220 203.31,207.016258 203.31,191 L203.31,46.23 C203.31,31.72 193.31,19.71 179.15,17.6 L179.12,17.58 Z" id="Shape"></path>
            <rect id="Rectangle-path" x="457.49" y="91.54" width="7.49" height="33.96"></rect>
            <path d="M262.79,186.17 C256.28,186.17 253.39,180.38 253.39,174.54 C253.39,168.44 255.88,162.19 262.92,162.19 C268.69,162.19 272.31,166.66 272.31,174.19 C272.31,180.1 269.49,186.19 262.8,186.19 L262.79,186.17 Z M272,161.6 C269.57,157.86 264.84,156.29 260.57,156.29 C253.15,156.29 245.87,161.67 245.87,173.95 C245.87,184.12 251.05,192.07 261.75,192.07 C266.02,192.07 270.29,190.43 272.26,186.55 L272.4,191.15 L279.49,191.15 L279.49,144.28 L272,144.28 L272,161.6 Z" id="Shape"></path>
            <path d="M382.34,96.54 C387.4,96.54 390.62,100.8 390.88,105.54 L373.41,105.54 C373.6,100.49 377.16,96.54 382.34,96.54 M382.54,126.42 C389.96,126.42 396.26,122.28 397.91,114.86 L390.81,114.86 C389.5,118.61 386.87,120.5 382.54,120.5 C376.3,120.5 373.41,115.78 373.41,110.5 L398.36,110.5 C399.61,100.33 393.04,90.67 382.36,90.67 C372.24,90.67 365.95,98.94 365.95,108.61 C365.95,119.04 371.95,126.47 382.56,126.47" id="Shape"></path>
            <path d="M410.24,109.34 C410.24,101.86 414.31,97.71 419.43,97.71 C420.509221,97.7581122 421.58453,97.8716541 422.65,98.05 L422.65,90.82 C421.716274,90.6843395 420.773485,90.6208182 419.83,90.63 C415.24,90.63 410.77,94.51 409.91,98.11 L409.78,91.55 L402.78,91.55 L402.78,125.55 L410.27,125.55 L410.24,109.34 Z" id="Shape"></path>
            <path d="M291.41,105.46 C291.41,100.46 294.63,96.53 299.63,96.53 C304.02,96.53 306.13,98.83 306.26,104.14 L306.26,125.5 L313.75,125.5 L313.75,102.18 C313.75,94.56 309.08,90.62 301.75,90.62 C297.408682,90.5915148 293.380935,92.8778425 291.18,96.62 L291.05,91.5 L283.96,91.5 L283.96,125.5 L291.44,125.5 L291.41,105.46 Z" id="Shape"></path>
            <path d="M260.22,126.41 C264.207008,126.347429 267.870987,124.204419 269.88,120.76 L270.01,125.49 L277.37,125.49 L277.37,91.49 L269.88,91.49 L269.88,111.19 C269.88,116.45 267.78,120.45 261.54,120.45 C257.46,120.45 255.04,118.29 255.04,112.31 L255.04,91.54 L247.56,91.54 L247.56,113.08 C247.56,121.95 251.37,126.41 260.23,126.41" id="Shape"></path>
            <rect id="Rectangle-path" x="457.49" y="78.61" width="7.49" height="7.09"></rect>
            <path d="M487.16,96.54 C492.93,96.54 496.55,101 496.55,108.49 C496.55,114.41 493.73,120.49 487.03,120.49 C480.53,120.49 477.64,114.72 477.64,108.87 C477.64,102.75 480.13,96.53 487.17,96.53 M486,126.41 C490.27,126.41 494.54,124.76 496.51,120.9 L496.64,125.5 L503.73,125.5 L503.73,78.61 L496.25,78.61 L496.25,95.95 C493.82,92.2 489.09,90.62 484.82,90.62 C477.4,90.62 470.12,96.01 470.12,108.29 C470.12,118.46 475.3,126.41 486,126.41" id="Shape"></path>
            <polygon id="Shape" points="352.21 125.5 364.35 91.54 356.61 91.54 348.33 117.61 339.6 91.54 331.46 91.54 343.8 125.5"></polygon>
            <path d="M476,156.49 C475.066594,156.350437 474.12376,156.283569 473.18,156.29 C468.58,156.29 464.12,160.16 463.27,163.77 L463.13,157.21 L456.13,157.21 L456.13,191.16 L463.62,191.16 L463.62,175 C463.62,167.52 467.69,163.38 472.81,163.38 C473.88926,163.421401 474.964778,163.531625 476.03,163.71 L476,156.49 Z" id="Shape"></path>
            <path d="M492.28,186.17 C485.59,186.17 482.63,180.06 482.63,174.17 C482.63,168.28 485.63,162.17 492.28,162.17 C498.93,162.17 501.93,168.28 501.93,174.17 C501.93,180.06 498.98,186.17 492.28,186.17 M492.28,156.29 C481.38,156.29 475.14,163.77 475.14,174.15 C475.14,184.53 481.38,192.08 492.28,192.08 C503.18,192.08 509.42,184.6 509.42,174.15 C509.42,163.7 503.19,156.29 492.28,156.29" id="Shape"></path>
            <path d="M292.21,171.19 C292.4,166.14 295.95,162.19 301.13,162.19 C306.31,162.19 309.4,166.46 309.67,171.19 L292.21,171.19 Z M301.13,156.28 C291.01,156.28 284.72,164.55 284.72,174.2 C284.72,184.65 290.72,192.07 301.33,192.07 C308.76,192.07 315.06,187.93 316.7,180.5 L309.6,180.5 C308.29,184.25 305.66,186.16 301.32,186.16 C295.09,186.16 292.21,181.43 292.21,176.16 L317.15,176.16 C318.4,165.98 311.83,156.33 301.15,156.33 L301.13,156.28 Z" id="Shape"></path>
            <rect id="Rectangle-path" x="441.8" y="144.27" width="7.49" height="7.09"></rect>
            <path d="M590.43,105.53 C590.62,100.47 594.17,96.53 599.36,96.53 C604.55,96.53 607.63,100.8 607.9,105.53 L590.43,105.53 Z M599.36,90.62 C589.24,90.62 582.95,98.89 582.95,108.55 C582.95,118.99 588.95,126.41 599.56,126.41 C606.99,126.41 613.29,122.27 614.93,114.85 L607.84,114.85 C606.53,118.59 603.9,120.49 599.56,120.49 C593.33,120.49 590.44,115.76 590.44,110.49 L615.39,110.49 C616.64,100.31 610.07,90.66 599.39,90.66 L599.36,90.62 Z" id="Shape"></path>
            <path d="M561,120.49 C554.5,120.49 551.61,114.72 551.61,108.87 C551.61,102.75 554.1,96.53 561.14,96.53 C566.91,96.53 570.52,100.99 570.52,108.48 C570.52,114.4 567.7,120.48 561,120.48 L561,120.49 Z M570.26,95.93 C567.83,92.18 563.1,90.6 558.83,90.6 C551.41,90.6 544.13,95.99 544.13,108.27 C544.13,118.44 549.31,126.39 560.01,126.39 C564.28,126.39 568.55,124.74 570.52,120.88 L570.65,125.48 L577.74,125.48 L577.74,78.6 L570.26,78.6 L570.26,95.93 Z" id="Shape"></path>
            <path d="M531.54,114.06 C531.54,118.79 526.43,120.49 523.14,120.49 C520.51,120.49 516.25,119.49 516.25,116.15 C516.25,112.22 519.14,111.04 522.35,110.51 C525.56,109.98 529.24,109.98 531.54,108.51 L531.54,114.06 Z M539.03,117.94 L539.03,100.47 C539.03,93.32 532.03,90.62 525.44,90.62 C517.96,90.62 510.53,93.18 510,101.92 L517.49,101.92 C517.81,98.24 520.77,96.53 524.98,96.53 C527.98,96.53 531.98,97.25 531.98,101.13 C531.98,105.53 527.18,104.94 521.81,105.93 C515.5,106.65 508.74,108.03 508.74,116.5 C508.74,123.13 514.25,126.42 520.36,126.42 C524.36,126.42 529.16,125.17 532.12,122.28 C532.71,125.37 534.88,126.42 537.89,126.42 C539.497414,126.340743 541.087562,126.051625 542.62,125.56 L542.62,120.38 C542.01168,120.47733 541.395962,120.520832 540.78,120.51 C539.41,120.51 539.01,119.79 539.01,117.95 L539.03,117.94 Z" id="Shape"></path>
            <path d="M441.94,105.46 C436.43,104.21 430.94,103.68 430.94,100.01 C430.94,97.01 434.94,96.53 437.11,96.53 C440.39,96.53 443.35,97.53 444,101.05 L451.81,101.05 C450.89,93.5 444.58,90.61 437.62,90.61 C431.45,90.61 423.43,92.91 423.43,100.33 C423.43,107.22 428.82,109.19 434.34,110.33 C439.86,111.47 445.24,112.03 445.43,115.97 C445.62,119.91 440.71,120.44 437.88,120.44 C433.88,120.44 430.59,118.87 430.2,114.53 L422.7,114.53 C422.84,122.53 429.2,126.36 437.7,126.36 C444.7,126.36 452.87,123.36 452.87,115.36 C452.87,108.67 447.35,106.7 441.87,105.45" id="Shape"></path>
            <path d="M359.42,179.73 C359.42,184.46 354.3,186.17 351.01,186.17 C348.38,186.17 344.12,185.17 344.12,181.83 C344.12,177.89 347.01,176.7 350.23,176.18 C353.45,175.66 357.12,175.65 359.42,174.18 L359.42,179.73 Z M366.9,183.6 L366.9,166.14 C366.9,158.98 359.9,156.28 353.31,156.28 C345.83,156.28 338.4,158.84 337.89,167.57 L345.37,167.57 C345.7,163.9 348.65,162.19 352.85,162.19 C355.85,162.19 359.85,162.91 359.85,166.78 C359.85,171.18 355.05,170.59 349.67,171.58 C343.37,172.3 336.6,173.68 336.6,182.15 C336.6,188.79 342.11,192.07 348.22,192.07 C352.22,192.07 357.02,190.81 359.98,187.93 C360.57,191.02 362.74,192.07 365.76,192.07 C367.362761,191.985788 368.948553,191.700211 370.48,191.22 L370.48,186 C369.87174,186.097852 369.255976,186.141357 368.64,186.13 C367.26,186.13 366.87,185.4 366.87,183.56 L366.9,183.6 Z" id="Shape"></path>
            <rect id="Rectangle-path" x="320.5" y="78.61" width="7.5" height="7.09"></rect>
            <rect id="Rectangle-path" x="320.5" y="91.54" width="7.5" height="33.96"></rect>
            <rect id="Rectangle-path" x="441.8" y="157.21" width="7.49" height="33.95"></rect>
            <polygon id="Shape" points="387.19 183.28 378.46 157.21 370.32 157.21 382.66 191.15 391.07 191.15 403.21 157.21 395.47 157.21"></polygon>
            <path d="M412.27,171.19 C412.46,166.14 416,162.19 421.2,162.19 C426.4,162.19 429.47,166.46 429.73,171.19 L412.27,171.19 Z M421.2,156.28 C411.09,156.28 404.78,164.55 404.78,174.2 C404.78,184.65 410.78,192.07 421.4,192.07 C428.82,192.07 435.12,187.93 436.76,180.5 L429.67,180.5 C428.36,184.25 425.74,186.16 421.4,186.16 C415.15,186.16 412.27,181.43 412.27,176.16 L437.22,176.16 C438.46,165.98 431.9,156.33 421.22,156.33 L421.2,156.28 Z" id="Shape"></path>
        </g>
    </g>
</svg>